<mxfile host="app.diagrams.net" modified="2024-01-26T09:35:45.158Z" agent="Mozilla/5.0 (Windows NT 10.0; Win64; x64) AppleWebKit/537.36 (KHTML, like Gecko) Chrome/120.0.0.0 Safari/537.36" version="23.0.1" etag="mIjUeHJ6H7l6v2WsJViH" type="github">
  <diagram name="Page-1" id="_AO7cvuU7aIyWHiTs_M6">
    <mxGraphModel>
      <root>
        <mxCell id="0" />
        <mxCell id="1" parent="0" />
      </root>
    </mxGraphModel>
  </diagram>
</mxfile>
